HIERARCHY
ROOT hip
{
  OFFSET 0 0 0
  CHANNELS 6 Xposition Yposition Zposition Zrotation Yrotation Xrotation
  JOINT abdomen
  {
    OFFSET 0 20.6881 -0.73152
    CHANNELS 3 Zrotation Xrotation Yrotation
    JOINT chest
    {
      OFFSET 0 11.7043 -0.48768
      CHANNELS 3 Zrotation Xrotation Yrotation
      JOINT neck
      {
        OFFSET 0 22.1894 -2.19456
        CHANNELS 3 Zrotation Xrotation Yrotation
        JOINT head
        {
          OFFSET -0.24384 7.07133 1.2192
          CHANNELS 3 Zrotation Xrotation Yrotation
          JOINT leftEye
          {
            OFFSET 4.14528 8.04674 8.04672
            CHANNELS 3 Zrotation Xrotation Yrotation
            End Site
            {
              OFFSET 1 0 0
            }
          }
          JOINT rightEye
          {
            OFFSET -3.6576 8.04674 8.04672
            CHANNELS 3 Zrotation Xrotation Yrotation
            End Site
            {
              OFFSET 1 0 0
            }
          }
        }
      }
      JOINT rCollar
      {
        OFFSET -2.68224 19.2634 -4.8768
        CHANNELS 3 Zrotation Xrotation Yrotation
        JOINT rShldr
        {
          OFFSET -8.77824 -1.95073 1.46304
          CHANNELS 3 Zrotation Xrotation Yrotation
          JOINT rForeArm
          {
            OFFSET -28.1742 -1.7115 0.48768
            CHANNELS 3 Zrotation Xrotation Yrotation
            JOINT rHand
            {
              OFFSET -22.5879 0.773209 7.07136
              CHANNELS 3 Zrotation Xrotation Yrotation
              JOINT rThumb1
              {
                OFFSET -1.2192 -0.487915 3.41376
                CHANNELS 3 Zrotation Xrotation Yrotation
                JOINT rThumb2
                {
                  OFFSET -3.37035 -0.52449 3.41376
                  CHANNELS 3 Zrotation Xrotation Yrotation
                  End Site
                  {
                    OFFSET -1.78271 -1.18214 1.43049
                  }
                }
              }
              JOINT rIndex1
              {
                OFFSET -7.75947 0.938293 5.60832
                CHANNELS 3 Zrotation Xrotation Yrotation
                JOINT rIndex2
                {
                  OFFSET -2.54057 -0.884171 1.56538
                  CHANNELS 3 Zrotation Xrotation Yrotation
                  End Site
                  {
                    OFFSET -1.62519 -0.234802 1.16502
                  }
                }
              }
              JOINT rMid1
              {
                OFFSET -8.24714 1.18213 3.41376
                CHANNELS 3 Zrotation Xrotation Yrotation
                JOINT rMid2
                {
                  OFFSET -3.10165 -0.590103 1.0647
                  CHANNELS 3 Zrotation Xrotation Yrotation
                  End Site
                  {
                    OFFSET -2.48547 -0.328903 0.83742
                  }
                }
              }
              JOINT rRing1
              {
                OFFSET -8.82822 0.546677 1.51678
                CHANNELS 3 Zrotation Xrotation Yrotation
                JOINT rRing2
                {
                  OFFSET -2.60934 -0.819778 -0.0198488
                  CHANNELS 3 Zrotation Xrotation Yrotation
                  End Site
                  {
                    OFFSET -2.33842 -0.294052 0.168128
                  }
                }
              }
              JOINT rPinky1
              {
                OFFSET -8.27202 -0.0477905 -0.4584
                CHANNELS 3 Zrotation Xrotation Yrotation
                JOINT rPinky2
                {
                  OFFSET -1.82734 -0.647385 -0.700984
                  CHANNELS 3 Zrotation Xrotation Yrotation
                  End Site
                  {
                    OFFSET -1.69225 -0.51767 -0.607171
                  }
                }
              }
            }
          }
        }
      }
      JOINT lCollar
      {
        OFFSET 2.68224 19.2634 -4.8768
        CHANNELS 3 Zrotation Xrotation Yrotation
        JOINT lShldr
        {
          OFFSET 8.77824 -1.95073 1.46304
          CHANNELS 3 Zrotation Xrotation Yrotation
          JOINT lForeArm
          {
            OFFSET 28.1742 -1.7115 0.48768
            CHANNELS 3 Zrotation Xrotation Yrotation
            JOINT lHand
            {
              OFFSET 22.5879 0.773209 7.07136
              CHANNELS 3 Zrotation Xrotation Yrotation
              JOINT lThumb1
              {
                OFFSET 1.2192 -0.487915 3.41376
                CHANNELS 3 Zrotation Xrotation Yrotation
                JOINT lThumb2
                {
                  OFFSET 3.37035 -0.52449 3.41376
                  CHANNELS 3 Zrotation Xrotation Yrotation
                  End Site
                  {
                    OFFSET 1.78271 -1.18214 1.43049
                  }
                }
              }
              JOINT lIndex1
              {
                OFFSET 7.75947 0.938293 5.60832
                CHANNELS 3 Zrotation Xrotation Yrotation
                JOINT lIndex2
                {
                  OFFSET 2.54057 -0.884171 1.56538
                  CHANNELS 3 Zrotation Xrotation Yrotation
                  End Site
                  {
                    OFFSET 1.62519 -0.234802 1.16502
                  }
                }
              }
              JOINT lMid1
              {
                OFFSET 8.24714 1.18213 3.41376
                CHANNELS 3 Zrotation Xrotation Yrotation
                JOINT lMid2
                {
                  OFFSET 3.10165 -0.590103 1.0647
                  CHANNELS 3 Zrotation Xrotation Yrotation
                  End Site
                  {
                    OFFSET 2.48547 -0.328903 0.83742
                  }
                }
              }
              JOINT lRing1
              {
                OFFSET 8.82822 0.546677 1.51678
                CHANNELS 3 Zrotation Xrotation Yrotation
                JOINT lRing2
                {
                  OFFSET 2.60934 -0.819778 -0.0198488
                  CHANNELS 3 Zrotation Xrotation Yrotation
                  End Site
                  {
                    OFFSET 2.33842 -0.294052 0.168128
                  }
                }
              }
              JOINT lPinky1
              {
                OFFSET 8.27202 -0.0477905 -0.4584
                CHANNELS 3 Zrotation Xrotation Yrotation
                JOINT lPinky2
                {
                  OFFSET 1.82734 -0.647385 -0.700984
                  CHANNELS 3 Zrotation Xrotation Yrotation
                  End Site
                  {
                    OFFSET 1.69225 -0.51767 -0.607171
                  }
                }
              }
            }
          }
        }
      }
    }
  }
  JOINT rButtock
  {
    OFFSET -8.77824 4.35084 1.2192
    CHANNELS 3 Zrotation Xrotation Yrotation
    JOINT rThigh
    {
      OFFSET 0 -1.70687 -2.19456
      CHANNELS 3 Zrotation Xrotation Yrotation
      JOINT rShin
      {
        OFFSET 0 -36.8199 0.73152
        CHANNELS 3 Zrotation Xrotation Yrotation
        JOINT rFoot
        {
          OFFSET 0.73152 -45.1104 -5.12064
          CHANNELS 3 Zrotation Xrotation Yrotation
          End Site
          {
            OFFSET -1.1221 -3.69964 12.103
          }
        }
      }
    }
  }
  JOINT lButtock
  {
    OFFSET 8.77824 4.35084 1.2192
    CHANNELS 3 Zrotation Xrotation Yrotation
    JOINT lThigh
    {
      OFFSET 0 -1.70687 -2.19456
      CHANNELS 3 Zrotation Xrotation Yrotation
      JOINT lShin
      {
        OFFSET 0 -36.8199 0.73152
        CHANNELS 3 Zrotation Xrotation Yrotation
        JOINT lFoot
        {
          OFFSET -0.73152 -45.1104 -5.12064
          CHANNELS 3 Zrotation Xrotation Yrotation
          End Site
          {
            OFFSET 1.1221 -3.69964 12.103
          }
        }
      }
    }
  }
}
MOTION
Frames:	6
Frame Time:	0.00833333
-133.964 68.1761 31.2372 195.93 22.174 207.136 -1.10602 33.8469 -1.16158 -1.23741 0.189281 0.583871 -5.24215 13.5276 -1.82124 51.756 -65.7537 38.2999 -0.0 0.0 0.0 -0.0 0.0 0.0 -1.77965e-13 -1.81292e-13 -4.10142e-13 87.1258 -1.84787 2.29841 -28.3963 -34.2122 74.0475 -3.37742 -45.1307 -8.11634 -1.81687e-09 -4.35424e-10 -3.24563e-09 -3.03033e-09 -7.60464e-10 -5.64151e-09 -1.81686e-09 -4.35424e-10 -3.24563e-09 7.73091 5.47488 0.417314 -1.81686e-09 -4.35424e-10 -3.24563e-09 2.90554 0.965183 0.102902 -1.81686e-09 -4.35424e-10 -3.24562e-09 10.2786 0.731801 0.0259123 -1.81687e-09 -4.35424e-10 -3.24562e-09 2.22167 -0.733487 -0.20892 -1.78269e-13 -1.81293e-13 -4.10391e-13 -93.4513 30.0419 7.22888 18.0937 -10.7877 -34.2307 6.83239 -57.0668 12.5309 -9.92234e-10 4.45428e-10 -4.37235e-09 -1.51367e-09 6.42189e-10 -7.57607e-09 -9.92236e-10 4.45431e-10 -4.37234e-09 -7.73091 5.47488 -0.417314 -9.92233e-10 4.4543e-10 -4.37234e-09 -2.90554 0.965183 -0.102902 -9.92247e-10 4.45429e-10 -4.37234e-09 -10.2786 0.731801 -0.0259123 -9.92234e-10 4.45426e-10 -4.37235e-09 -2.22167 -0.733487 0.20892 -2.03217e-16 0.0 -3.88251e-19 -8.33599 -13.3638 -17.6384 -2.20925 70.8881 2.60718 -0.374886 5.8729 4.14877 2.03217e-16 0.0 3.88251e-19 23.8706 -58.8178 36.4296 13.1633 85.347 -12.8998 4.26862 2.21701 28.8605
-134.04 68.1772 29.1153 193.827 19.5921 205.669 -1.64688 34.8226 -2.64209 -1.00719 0.0357948 0.187367 -5.26606 14.0971 -1.68579 52.3641 -66.0066 39.0713 -0.0 0.0 0.0 -0.0 0.0 0.0 -5.32272e-14 -1.75057e-13 -4.339e-13 86.905 -2.9154 1.59844 -28.4012 -34.6577 74.8734 -3.7834 -47.1555 -8.69545 -2.33425e-09 -5.1352e-10 -3.47893e-09 -3.90722e-09 -8.99804e-10 -6.06986e-09 -2.33425e-09 -5.1352e-10 -3.47893e-09 7.73091 5.47488 0.417314 -2.33425e-09 -5.1352e-10 -3.47893e-09 2.90554 0.965183 0.102902 -2.33425e-09 -5.13519e-10 -3.47893e-09 10.2786 0.731801 0.0259123 -2.33426e-09 -5.13519e-10 -3.47892e-09 2.22167 -0.733487 -0.20892 -5.35306e-14 -1.75054e-13 -4.3415e-13 -91.4165 29.9379 3.31217 18.4397 -11.1493 -35.0704 8.13256 -59.9458 14.056 -1.42314e-09 1.07378e-09 -2.99685e-09 -2.31271e-09 1.80038e-09 -5.22329e-09 -1.42314e-09 1.07378e-09 -2.99684e-09 -7.73091 5.47488 -0.417314 -1.42314e-09 1.07378e-09 -2.99684e-09 -2.90554 0.965183 -0.102902 -1.42315e-09 1.07378e-09 -2.99685e-09 -10.2786 0.731801 -0.0259123 -1.42314e-09 1.07378e-09 -2.99686e-09 -2.22167 -0.733487 0.20892 -2.03217e-16 0.0 -3.88251e-19 -10.2523 -16.3355 -19.0122 -3.28713 75.649 3.62996 -0.3375 5.68923 3.21192 2.03217e-16 0.0 3.88251e-19 18.759 -57.1058 31.3663 10.4743 84.2679 -10.1818 4.12914 2.26167 28.4021
-134.439 68.008 27.3147 191.435 16.0373 205.371 -2.0708 35.9174 -4.24357 -0.851785 -0.201673 -0.227598 -5.29489 14.6924 -1.53743 52.2018 -66.0534 39.0429 -0.0 0.0 0.0 -0.0 0.0 0.0 1.6439e-14 -6.93789e-14 -2.46959e-13 86.5329 -4.17326 1.16146 -28.4114 -34.9553 75.3563 -4.45174 -49.9627 -9.59553 -2.92744e-09 -4.1497e-10 -2.88929e-09 -4.93915e-09 -7.23577e-10 -5.08638e-09 -2.92744e-09 -4.14969e-10 -2.8893e-09 7.73091 5.47488 0.417314 -2.92744e-09 -4.14969e-10 -2.8893e-09 2.90554 0.965183 0.102902 -2.92743e-09 -4.14968e-10 -2.8893e-09 10.2786 0.731801 0.0259123 -2.92745e-09 -4.14967e-10 -2.88929e-09 2.22167 -0.733487 -0.20892 1.61565e-14 -6.93746e-14 -2.4721e-13 -89.2383 29.4904 -0.619456 18.7028 -11.4254 -35.7404 9.79969 -62.9008 15.9535 -1.0788e-09 9.03145e-10 -1.40367e-09 -1.79435e-09 1.58346e-09 -2.46848e-09 -1.0788e-09 9.03149e-10 -1.40366e-09 -7.73091 5.47488 -0.417314 -1.0788e-09 9.03146e-10 -1.40366e-09 -2.90554 0.965183 -0.102902 -1.07881e-09 9.03146e-10 -1.40367e-09 -10.2786 0.731801 -0.0259123 -1.0788e-09 9.03143e-10 -1.40368e-09 -2.22167 -0.733487 0.20892 -2.03217e-16 0.0 -3.88251e-19 -12.7295 -19.2251 -20.6906 -5.35294 80.2173 5.6392 -0.325599 5.53778 1.88623 2.03217e-16 0.0 3.88251e-19 13.7259 -54.8147 26.6282 8.24483 82.918 -7.94465 4.0772 2.10939 27.9884
-133.042 68.6257 25.0693 191.93 18.4499 203.724 -2.35462 36.9069 -5.84 -0.688444 -0.47458 -0.630496 -5.39001 15.2158 -1.37136 51.5798 -65.8907 38.5251 -0.0 0.0 0.0 -0.0 0.0 0.0 6.20485e-14 7.17836e-14 5.47898e-15 85.9999 -5.43376 0.950035 -28.4246 -35.1582 75.6355 -5.23514 -52.6577 -10.5917 -3.3987e-09 -2.47693e-10 -1.9802e-09 -5.77235e-09 -4.24808e-10 -3.54754e-09 -3.3987e-09 -2.47691e-10 -1.98021e-09 7.73091 5.47488 0.417314 -3.3987e-09 -2.47692e-10 -1.9802e-09 2.90554 0.965183 0.102902 -3.39869e-09 -2.47691e-10 -1.9802e-09 10.2786 0.731801 0.0259123 -3.39871e-09 -2.47689e-10 -1.9802e-09 2.22167 -0.733487 -0.20892 6.17961e-14 7.17869e-14 5.22701e-15 -87.1771 29.0095 -4.33003 19.0399 -11.8155 -36.5171 12.0131 -65.9814 18.4053 -4.29397e-10 4.22246e-10 7.05017e-11 -7.49276e-10 8.18696e-10 9.31553e-11 -4.29401e-10 4.22249e-10 7.05112e-11 -7.73091 5.47488 -0.417314 -4.29399e-10 4.22246e-10 7.05042e-11 -2.90554 0.965183 -0.102902 -4.29412e-10 4.22246e-10 7.05049e-11 -10.2786 0.731801 -0.0259123 -4.29394e-10 4.22243e-10 7.04933e-11 -2.22167 -0.733487 0.20892 -2.03217e-16 0.0 -3.88251e-19 -15.3239 -22.2373 -22.3567 -10.2392 84.4062 10.477 -0.338986 5.35552 0.405127 2.03217e-16 0.0 3.88251e-19 9.51309 -52.1533 22.7805 6.55772 81.3749 -6.27372 4.05428 1.87757 27.6158
-132.567 68.8095 23.0769 191.429 17.87 203.192 -2.51686 37.5759 -7.2795 -0.432483 -0.734388 -0.9908 -5.61172 15.5697 -1.18302 50.8314 -65.5113 37.8513 -0.0 0.0 0.0 -0.0 0.0 0.0 1.14616e-13 1.84471e-13 1.7821e-13 85.2973 -6.50921 0.927016 -28.4312 -35.3103 75.8595 -5.81835 -54.3598 -11.304 -3.5503e-09 -1.19611e-10 -1.25511e-09 -6.05303e-09 -1.96523e-10 -2.3098e-09 -3.5503e-09 -1.19609e-10 -1.25512e-09 7.73091 5.47488 0.417314 -3.5503e-09 -1.1961e-10 -1.25512e-09 2.90554 0.965183 0.102902 -3.5503e-09 -1.19608e-10 -1.25512e-09 10.2786 0.731801 0.0259123 -3.55031e-09 -1.19606e-10 -1.25512e-09 2.22167 -0.733487 -0.20892 1.14391e-13 1.84471e-13 1.77962e-13 -85.3944 28.8259 -7.63333 19.5863 -12.5002 -37.6849 15.1033 -69.2262 21.7456 5.4886e-11 1.19796e-10 1.08897e-09 3.18437e-11 3.33373e-10 1.86643e-09 5.48825e-11 1.198e-10 1.08898e-09 -7.73091 5.47488 -0.417314 5.48842e-11 1.19796e-10 1.08897e-09 -2.90554 0.965183 -0.102902 5.48722e-11 1.19796e-10 1.08897e-09 -10.2786 0.731801 -0.0259123 5.48904e-11 1.19794e-10 1.08896e-09 -2.22167 -0.733487 0.20892 -2.03217e-16 0.0 -3.88251e-19 -17.5422 -25.6089 -23.6988 -30.6104 87.9194 30.8194 -0.380676 5.08152 -0.997641 2.03217e-16 0.0 3.88251e-19 6.57507 -49.4074 20.1381 5.32649 79.7179 -5.08546 4.00543 1.68549 27.2799
-132.082 69.0084 21.059 191.117 17.3066 202.808 -2.56432 37.7864 -8.46102 -0.0746302 -0.977373 -1.29543 -6.01401 15.6817 -0.971789 49.92 -64.7778 36.9191 -0.0 0.0 0.0 -0.0 0.0 0.0 1.8356e-13 2.72338e-13 2.53259e-13 84.365 -7.39283 1.07273 -28.4295 -35.3643 75.9622 -5.97593 -54.7691 -11.4908 -3.1832e-09 -3.46021e-11 -7.16613e-10 -5.44032e-09 -4.55733e-11 -1.36859e-09 -3.1832e-09 -3.46011e-11 -7.16626e-10 7.73091 5.47488 0.417314 -3.1832e-09 -3.46012e-11 -7.16614e-10 2.90554 0.965183 0.102902 -3.18319e-09 -3.46011e-11 -7.16622e-10 10.2786 0.731801 0.0259123 -3.18321e-09 -3.45993e-11 -7.16621e-10 2.22167 -0.733487 -0.20892 1.83359e-13 2.7233e-13 2.53021e-13 -83.8829 29.1725 -10.5228 20.3617 -13.5089 -39.4479 19.7143 -72.6004 26.6244 3.16989e-10 6.77397e-11 1.52259e-09 4.5385e-10 2.38189e-10 2.62753e-09 3.16987e-10 6.77437e-11 1.5226e-09 -7.73091 5.47488 -0.417314 3.16988e-10 6.77416e-11 1.52259e-09 -2.90554 0.965183 -0.102902 3.16978e-10 6.77413e-11 1.52259e-09 -10.2786 0.731801 -0.0259123 3.16994e-10 6.77408e-11 1.52258e-09 -2.22167 -0.733487 0.20892 -2.03217e-16 0.0 -3.88251e-19 -19.1701 -29.6568 -24.6798 -142.562 88.1675 142.767 -0.467151 4.72737 -2.35047 2.03217e-16 0.0 3.88251e-19 4.93907 -46.803 18.7773 4.38038 77.9886 -4.21121 3.92471 1.5618 27.0488
